<?xml version="1.0" encoding="utf-8"?>
<!-- Generator: Adobe Illustrator 16.0.0, SVG Export Plug-In . SVG Version: 6.00 Build 0)  -->
<!DOCTYPE svg PUBLIC "-//W3C//DTD SVG 1.1//EN" "http://www.w3.org/Graphics/SVG/1.1/DTD/svg11.dtd">
<svg version="1.1" id="Layer_1" xmlns="http://www.w3.org/2000/svg" xmlns:xlink="http://www.w3.org/1999/xlink" x="0px" y="0px"
	 width="1200px" height="400px" viewBox="0 0 1200 400" enable-background="new 0 0 1200 400" xml:space="preserve">
<g id="Layer_2" display="none">
	<rect x="0" display="inline" fill="#BA3A3A" width="50" height="40"/>
	<rect x="9.375" y="7.5" display="inline" fill="#75F9FC" width="31.25" height="25"/>
</g>
<rect x="12.375" y="17.161" fill="#FFFFFF" width="25" height="4.803"/>
<rect x="12.375" y="24.822" fill="#FFFFFF" width="25" height="4.803"/>
<rect x="12.375" y="9.5" fill="#FFFFFF" width="25" height="4.803"/>
<polygon fill="#FFFFFF" points="58.464,8.226 55,14.226 51.536,8.226 "/>
<rect x="-78.291" y="175.043" fill="none" width="75" height="65"/>
<g>
	<polyline fill="#FFFFFF" points="16.709,218.283 30.043,190.95 33.709,200.283 42.084,183.953 45.209,190.95 52.043,174.953 
		72.376,218.283 	"/>
	<ellipse fill="#FFFFFF" cx="44.209" cy="224.284" rx="36.334" ry="10.667"/>
</g>
<g>
	<rect x="245.339" y="62.425" fill="none" width="65" height="77"/>
	<g>
		<ellipse fill="#FFFFFF" cx="279.256" cy="130.79" rx="16.958" ry="4.146"/>
		<circle fill="none" stroke="#FFFFFF" stroke-width="9" stroke-miterlimit="10" cx="278.256" cy="94.02" r="23.583"/>
		<g>
			<g>
				<path fill="#FFFFFF" d="M278.256,82.853c-6.167,0-11.167,4.999-11.167,11.167c0,6.167,5,11.166,11.167,11.166
					s11.167-4.999,11.167-11.166C289.423,87.852,284.423,82.853,278.256,82.853z M276.923,92.52h-5.5c0,0,0.002-5.5,5.5-5.5V92.52z"
					/>
			</g>
		</g>
		<polyline fill="#FFFFFF" points="305.339,133.936 253.173,133.936 253.173,132.686 265.923,123.353 271.756,123.353 
			271.756,119.353 284.923,119.353 284.923,123.27 292.256,123.27 305.339,132.353 		"/>
	</g>
</g>
<text transform="matrix(1 0 0 1 9.3748 50.668)" font-family="'MyriadPro-Regular'" font-size="12">Environment Page</text>
<g>
	<rect x="180.338" y="64.592" fill="none" width="65" height="77"/>
	<path fill="#FFFFFF" d="M193.647,107.325c-0.833-5.999-0.5-12.746-1.667-13.246s-2.5-2.168-0.833-2.5
		c1.667-0.334,5.7,1.082,6,5.164c0.3,4.083,1.191,6.697,2.503,8.002c1.313,1.305,1.193-0.594,1.497-2.521
		c0.308-1.927,2-12.813,2.667-15.813s2.367-15.081,3-16.667c0.633-1.585,2.361-1.861,2.833-1.833
		c0.476,0.028,2.358-0.69,2.358,4.476c0,5.166-1.358,14.357-1.358,15.691c0,1.333-0.216,5.418-0.167,6.333s1.831,3.001,2.666,0.833
		c0.834-2.166,0.668-6,1.668-7.5s5.667-3.166,6.333,0.334s0.284,3.086,0,4.666c-0.284,1.581,2.333-0.832,3.5-0.5
		c1.167,0.334,2.962,2.977,2.833,4.498c-0.129,1.523-1.812,4.336,0.015,3.502c1.819-0.833,2.486-2,4.152,0s2.667,5.5,3,6.5
		s0.667,4.334,0.667,6.167s-3.167,13.5-7,17.5s-7.833,7.667-12.5,7.667s-4.833,1-7.667-1.334
		c-2.833-2.333-12.833-17.67-13.333-20.002C194.313,114.412,194.48,113.324,193.647,107.325z"/>
</g>
<g id="Cross">
	
		<rect x="150.88" y="64.257" transform="matrix(-0.7071 -0.7071 0.7071 -0.7071 207.5292 246.0366)" fill="#FFFFFF" width="7.681" height="31.562"/>
	
		<rect x="150.87" y="64.499" transform="matrix(0.707 -0.7072 0.7072 0.707 -11.4429 132.9409)" fill="#FFFFFF" width="7.683" height="31.562"/>
	<rect x="134.85" y="60.163" fill="none" width="40" height="40"/>
</g>
<g id="i">
	<rect x="111.013" y="77.153" fill="#FFFFFF" width="5.541" height="14.178"/>
	<ellipse fill="#FFFFFF" cx="113.784" cy="73.122" rx="3.017" ry="2.906"/>
	<circle fill="none" stroke="#FFFFFF" stroke-width="2" stroke-miterlimit="10" cx="113.85" cy="81.04" r="13.614"/>
	<rect x="93.85" y="60.04" fill="none" width="40" height="40"/>
</g>
<g id="Env._Menu">
	<rect x="94.85" y="100.179" fill="none" width="82" height="42"/>
	<rect x="98.6" y="103.092" fill="#FFFFFF" width="23" height="17.341"/>
	<rect x="124.434" y="103.092" fill="#FFFFFF" width="23" height="17.341"/>
	<rect x="150.1" y="103.092" fill="#FFFFFF" width="23" height="17.341"/>
	<rect x="98.6" y="123.254" fill="#FFFFFF" width="74.5" height="16.012"/>
	<path fill="#FFFFFF" d="M136.229,118.679"/>
</g>
<rect x="-188.872" y="113.679" fill="none" width="75" height="65"/>
<g>
	<polyline fill="#FFFFFF" points="-178.872,159.511 -165.538,132.177 -161.872,141.511 -153.497,125.18 -150.372,132.177 
		-143.538,116.18 -123.205,159.511 	"/>
	<ellipse fill="#FFFFFF" cx="-151.372" cy="165.511" rx="36.334" ry="10.667"/>
</g>
<rect x="-153.426" y="148.704" fill="#222222" width="4.772" height="19.615"/>
<rect x="-160.845" y="156.124" fill="#222222" width="19.614" height="4.775"/>
<g>
	<rect x="-66.539" y="1" fill="none" width="75" height="65"/>
	<path fill="#FFFFFF" d="M160.462,217.493l-19.919-42.449l-6.834,15.997l-3.125-6.997l-8.375,16.331l-3.666-9.334l-12.771,26.175
		c-5.84,1.896-9.396,4.404-9.396,7.159c0,5.892,16.268,10.667,36.334,10.667c20.063,0,36.334-4.775,36.334-10.667
		C169.043,221.752,165.812,219.351,160.462,217.493z M135.431,227.183h-4.771l-0.004-7.42h-7.419l-0.001-4.773l7.42-0.001
		l-0.001-7.421h4.775l0.001,7.42l7.42-0.001v4.774l-7.42,0.002V227.183z"/>
</g>
<g>
	<g>
		<path fill="#FFFFFF" d="M13.341,315.986c0-12.568,9.428-25.142,25.14-25.142c18.855,0,23.839,14.411,28.283,18.856
			c6.285,6.281,11.086-12.571,25.14-12.571c12.569,0,18.854,9.431,18.854,18.854c0,9.43-6.285,18.856-18.854,18.856
			c-14.054,0-18.854-18.856-25.14-12.567c-4.444,4.44-9.427,18.853-28.283,18.853C22.769,341.127,13.341,328.557,13.341,315.986z"/>
		<path fill="#FFFFFF" d="M9.851,315.906c0,0,0.005-0.266,0.02-0.776c0.003-0.132,0.007-0.276,0.012-0.438
			c0.012-0.188,0.026-0.398,0.042-0.627c0.016-0.228,0.033-0.475,0.053-0.736c0.028-0.246,0.06-0.512,0.091-0.791
			c0.056-0.563,0.167-1.182,0.282-1.863c0.145-0.677,0.296-1.417,0.52-2.201c0.423-1.576,1.07-3.344,2.006-5.222
			c0.932-1.88,2.193-3.854,3.854-5.769c0.841-0.943,1.769-1.887,2.801-2.776c1.044-0.883,2.192-1.713,3.436-2.479
			c1.253-0.748,2.595-1.427,4.029-1.986c1.429-0.572,2.951-0.997,4.522-1.32c1.573-0.32,3.205-0.514,4.865-0.553
			c0.415-0.024,0.831-0.02,1.249-0.014c0.21,0.004,0.419,0.008,0.629,0.013l0.157,0.001l0.139,0.002l0.073,0.006l0.291,0.02
			c0.387,0.023,0.775,0.051,1.171,0.074c0.186,0.01,0.419,0.039,0.634,0.062l0.654,0.069l0.657,0.069
			c0.216,0.03,0.427,0.065,0.64,0.103c0.426,0.071,0.854,0.129,1.284,0.219c0.428,0.093,0.854,0.185,1.288,0.279
			c0.43,0.101,0.856,0.229,1.288,0.342c1.717,0.5,3.433,1.145,5.082,1.99c3.305,1.683,6.323,4.143,8.724,7.104
			c1.22,1.468,2.297,3.044,3.34,4.631c0.514,0.795,1.024,1.594,1.543,2.375c0.511,0.787,1.038,1.555,1.596,2.257l0.424,0.511
			l0.216,0.233l0.104,0.118c0.042,0.044,0.003,0.009,0.032,0.035l0.066,0.06l0.132,0.123c0.045,0.043,0.09,0.083,0.118,0.103
			c0.066,0.053,0.124,0.104,0.196,0.154c0.147,0.105,0.294,0.2,0.441,0.271c0.292,0.141,0.566,0.212,0.852,0.205
			c0.286-0.012,0.597-0.088,0.929-0.245c0.665-0.313,1.36-0.872,2.028-1.498c0.667-0.636,1.32-1.347,1.979-2.071
			c1.313-1.464,2.653-3.005,4.145-4.484c1.495-1.474,3.153-2.9,5.088-4.06c1.932-1.151,4.152-2.024,6.499-2.369
			c0.585-0.095,1.178-0.145,1.771-0.18l0.84-0.024l0.39-0.011c0.135-0.002,0.293,0.004,0.44,0.009l0.896,0.023l0.864,0.064
			c0.288,0.019,0.577,0.057,0.866,0.094c0.289,0.041,0.579,0.063,0.868,0.123c1.159,0.183,2.313,0.479,3.452,0.86
			c1.138,0.388,2.245,0.9,3.307,1.507c1.063,0.605,2.074,1.313,3.017,2.114c0.939,0.804,1.787,1.709,2.561,2.677
			c0.771,0.965,1.438,2.01,2.019,3.098c0.585,1.082,1.063,2.22,1.439,3.385c0.77,2.326,1.134,4.764,1.149,7.197l-0.021,0.863
			c-0.01,0.282-0.037,0.635-0.057,0.948c-0.056,0.636-0.116,1.224-0.217,1.827c-0.184,1.207-0.479,2.396-0.855,3.563
			c-0.376,1.162-0.854,2.302-1.438,3.387c-0.578,1.085-1.248,2.132-2.018,3.099c-0.769,0.97-1.617,1.877-2.556,2.683
			c-0.941,0.803-1.954,1.513-3.018,2.119c-1.062,0.606-2.169,1.123-3.307,1.512c-1.139,0.383-2.295,0.683-3.454,0.867
			c-1.16,0.179-2.317,0.304-3.461,0.312c-0.287,0.013-0.572,0.007-0.856-0.002l-0.894-0.024l-0.389-0.027l-0.193-0.014l-0.233-0.024
			c-0.315-0.027-0.631-0.064-0.917-0.11c-2.354-0.345-4.58-1.217-6.513-2.371c-3.883-2.348-6.629-5.627-9.233-8.559
			c-0.656-0.729-1.309-1.439-1.974-2.076c-0.664-0.628-1.36-1.188-2.021-1.502c-0.331-0.158-0.64-0.236-0.926-0.251
			c-0.283-0.011-0.56,0.058-0.854,0.196c-0.293,0.139-0.596,0.358-0.886,0.635l-0.057,0.049c-0.021,0.021,0.006-0.008-0.036,0.036
			l-0.125,0.129l-0.245,0.263l-0.407,0.481c-0.567,0.696-1.105,1.459-1.631,2.233c-0.53,0.787-1.061,1.569-1.583,2.347
			c-1.071,1.563-2.165,3.116-3.4,4.555c-2.431,2.899-5.402,5.343-8.675,7.015c-3.272,1.66-6.766,2.612-10.122,2.992
			c-0.42,0.047-0.839,0.104-1.255,0.133c-0.417,0.026-0.831,0.057-1.243,0.086l-0.312,0.021l-0.075,0.005h-0.132l-0.145,0.006
			l-0.579,0.012l-0.575,0.013c-0.188,0.004-0.421-0.011-0.63-0.015c-0.424-0.02-0.863-0.021-1.271-0.056
			c-0.409-0.034-0.814-0.067-1.219-0.104c-0.805-0.104-1.604-0.202-2.384-0.366c-1.563-0.313-3.079-0.728-4.502-1.289
			c-1.425-0.552-2.766-1.218-4.016-1.951c-1.239-0.754-2.388-1.573-3.433-2.442c-1.033-0.887-1.963-1.814-2.807-2.754
			c-1.663-1.896-2.939-3.854-3.887-5.723c-0.938-1.872-1.588-3.636-2.021-5.205c-0.225-0.783-0.381-1.521-0.525-2.197
			c-0.119-0.683-0.234-1.303-0.292-1.861c-0.033-0.277-0.064-0.541-0.096-0.789c-0.02-0.248-0.037-0.479-0.053-0.693
			c-0.036-0.43-0.057-0.787-0.06-1.082c-0.018-0.582-0.024-0.886-0.024-0.886L9.851,315.906z M16.833,315.986
			c0,0,0.004,0.229,0.012,0.671c-0.001,0.222,0.012,0.495,0.037,0.823c0.01,0.16,0.021,0.338,0.032,0.524
			c0.021,0.188,0.044,0.392,0.065,0.604c0.035,0.428,0.127,0.898,0.198,1.423c0.102,0.519,0.204,1.088,0.363,1.692
			c0.311,1.207,0.745,2.586,1.416,4.051c0.654,1.476,1.565,3.022,2.734,4.58c0.604,0.763,1.27,1.528,2.021,2.27
			c0.76,0.729,1.585,1.447,2.502,2.113c1.848,1.309,4.027,2.453,6.536,3.179c0.621,0.196,1.27,0.337,1.927,0.485
			c0.333,0.062,0.667,0.121,1.004,0.183s0.656,0.088,0.988,0.138c0.171,0.021,0.318,0.049,0.51,0.063l0.575,0.043l0.577,0.04
			l0.145,0.01c-0.001,0.003,0.105,0.004,0.017,0.004l0.066,0.002l0.272,0.008c0.364,0.01,0.73,0.019,1.101,0.026
			c0.369,0.006,0.736-0.019,1.109-0.024c2.969-0.084,6.037-0.647,8.959-1.912c2.927-1.256,5.685-3.203,8.104-5.729
			c1.22-1.253,2.371-2.632,3.478-4.104c1.12-1.471,2.147-3.037,3.401-4.621l0.521-0.613l0.247-0.264l0.123-0.131
			c0.001-0.002,0.064-0.072,0.089-0.093l0.077-0.075c0.397-0.395,0.861-0.772,1.432-1.067c0.563-0.298,1.248-0.496,1.937-0.496
			c0.686-0.007,1.342,0.151,1.9,0.388c1.128,0.477,1.985,1.153,2.79,1.828c0.801,0.678,1.528,1.389,2.246,2.09
			c1.433,1.404,2.835,2.784,4.313,4.031c1.47,1.251,3.048,2.325,4.707,3.109c1.656,0.783,3.4,1.172,5.167,1.237
			c0.227,0.015,0.427-0.071,0.627-0.071h0.153l0.193,0.078l0.389,0.026l0.66-0.033c0.234-0.017,0.468-0.026,0.698-0.062
			c0.931-0.096,1.834-0.284,2.719-0.508c0.884-0.229,1.73-0.545,2.543-0.908c0.818-0.354,1.589-0.793,2.313-1.286
			c1.447-0.988,2.688-2.233,3.69-3.667c2.022-2.852,3.048-6.455,3.05-10.053c-0.001-3.596-1.021-7.2-3.043-10.058
			c-1.001-1.434-2.239-2.686-3.688-3.677c-0.725-0.496-1.494-0.938-2.313-1.295c-0.813-0.365-1.66-0.686-2.546-0.916
			c-0.218-0.066-0.443-0.105-0.668-0.164c-0.223-0.053-0.446-0.105-0.676-0.143l-0.684-0.125l-0.655-0.086
			c-0.387-0.064-1.069-0.09-1.438-0.129c-0.441-0.02-0.886-0.029-1.329-0.009c-1.769,0.066-3.519,0.534-5.181,1.321
			c-1.662,0.789-3.241,1.866-4.716,3.115c-1.487,1.238-2.873,2.638-4.303,4.044c-0.718,0.704-1.441,1.413-2.24,2.094
			c-0.801,0.674-1.657,1.354-2.78,1.834c-0.562,0.235-1.216,0.396-1.899,0.392c-0.688,0.006-1.372-0.192-1.938-0.484
			c-0.285-0.146-0.542-0.317-0.784-0.496c-0.121-0.09-0.244-0.198-0.361-0.299c-0.067-0.055-0.11-0.098-0.153-0.139l-0.129-0.123
			l-0.065-0.063c-0.016-0.016-0.093-0.094-0.094-0.096l-0.139-0.146l-0.277-0.288l-0.505-0.584
			c-1.271-1.576-2.332-3.123-3.479-4.572c-1.133-1.446-2.304-2.805-3.537-4.026c-2.451-2.462-5.158-4.396-8.055-5.638
			c-2.879-1.248-5.944-1.817-8.844-1.905l-0.53-0.019c-0.18-0.006-0.339-0.02-0.545-0.011c-0.394,0.005-0.784,0.013-1.173,0.021
			l-0.292,0.005l-0.073,0.001c0.097,0.002-0.011,0.004-0.007,0.005l-0.131,0.01l-0.528,0.038c-0.35,0.021-0.698,0.045-1.04,0.094
			c-1.375,0.146-2.688,0.418-3.928,0.779c-2.488,0.707-4.654,1.831-6.498,3.109c-0.914,0.658-1.74,1.365-2.499,2.084
			c-0.754,0.727-1.421,1.481-2.026,2.238c-0.584,0.772-1.118,1.531-1.569,2.299c-0.245,0.371-0.437,0.763-0.648,1.127
			c-0.189,0.377-0.38,0.744-0.55,1.108c-0.675,1.462-1.11,2.837-1.43,4.038c-0.163,0.604-0.271,1.169-0.374,1.688
			c-0.074,0.521-0.168,0.992-0.207,1.422c-0.024,0.213-0.047,0.41-0.069,0.6c-0.011,0.176-0.021,0.335-0.033,0.485
			c-0.011,0.149-0.021,0.288-0.03,0.413c-0.005,0.154-0.009,0.3-0.012,0.426c-0.012,0.513-0.019,0.775-0.019,0.775L16.833,315.986z"
			/>
	</g>
</g>
<path fill="#FFFFFF" d="M-226.986,138.65h-5.32c3.097-2.161,5.141-5.864,5.141-10.075c0-6.669-5.121-12.075-11.438-12.075
	c-6.314,0-11.437,5.405-11.437,12.075c0,4.211,2.044,7.915,5.14,10.075h-5.321c-5.765,0-10.438,3.616-10.438,8.076v17.978
	c0,4.46,4.673,8.076,10.438,8.076h23.235c5.765,0,10.438-3.616,10.438-8.076v-17.978C-216.547,142.266-221.22,138.65-226.986,138.65
	z M-225.706,155.752c-0.002,0.07-0.01,0.157-0.016,0.235c-0.014,0.157-0.027,0.304-0.053,0.453
	c-0.045,0.299-0.119,0.595-0.212,0.883c-0.093,0.289-0.212,0.571-0.354,0.84c-0.146,0.269-0.311,0.529-0.5,0.768
	c-0.19,0.241-0.401,0.465-0.635,0.665c-0.231,0.198-0.482,0.375-0.748,0.525c-0.263,0.15-0.536,0.278-0.818,0.375
	c-0.282,0.095-0.568,0.169-0.856,0.216c-0.287,0.044-0.574,0.074-0.855,0.076c-0.072,0.004-0.145,0.001-0.213,0l-0.223-0.006
	l-0.097-0.006l-0.048-0.004l-0.06-0.006c-0.079-0.007-0.154-0.016-0.228-0.027c-0.583-0.086-1.134-0.301-1.614-0.588
	c-0.962-0.582-1.643-1.395-2.289-2.121c-0.163-0.18-0.324-0.357-0.489-0.515c-0.162-0.155-0.337-0.294-0.5-0.373
	c-0.083-0.039-0.157-0.059-0.229-0.062c-0.071-0.002-0.139,0.013-0.213,0.05c-0.072,0.033-0.147,0.087-0.218,0.156l-0.017,0.012
	c-0.005,0.005,0.002-0.001-0.008,0.009l-0.031,0.031l-0.061,0.065l-0.103,0.12c-0.141,0.173-0.272,0.361-0.402,0.554
	c-0.133,0.195-0.265,0.389-0.395,0.582c-0.265,0.388-0.536,0.771-0.842,1.128c-0.603,0.72-1.34,1.325-2.151,1.739
	c-0.812,0.413-1.677,0.648-2.51,0.743c-0.104,0.011-0.207,0.025-0.31,0.032c-0.104,0.007-0.207,0.014-0.311,0.021l-0.076,0.006
	h-0.02h-0.032l-0.036,0.001l-0.144,0.003l-0.144,0.002c-0.048,0.001-0.104-0.002-0.154-0.003c-0.105-0.004-0.214-0.004-0.315-0.014
	c-0.102-0.009-0.202-0.016-0.302-0.026c-0.2-0.026-0.397-0.05-0.591-0.091c-0.388-0.077-0.766-0.18-1.116-0.319
	c-0.354-0.136-0.687-0.302-0.994-0.484c-0.308-0.187-0.593-0.39-0.852-0.605c-0.257-0.22-0.486-0.45-0.696-0.683
	c-0.412-0.47-0.729-0.956-0.963-1.419c-0.232-0.464-0.396-0.901-0.501-1.29c-0.057-0.194-0.094-0.377-0.13-0.544
	c-0.03-0.169-0.061-0.323-0.073-0.462c-0.009-0.069-0.018-0.134-0.023-0.196c-0.006-0.063-0.009-0.118-0.013-0.171
	c-0.009-0.107-0.014-0.195-0.014-0.269c-0.005-0.144-0.006-0.22-0.006-0.22v-0.021c0,0,0.001-0.064,0.004-0.191
	c0-0.033,0.002-0.068,0.002-0.108c0.003-0.047,0.007-0.1,0.011-0.156c0.004-0.057,0.008-0.118,0.013-0.182
	c0.008-0.062,0.016-0.128,0.023-0.197c0.013-0.139,0.041-0.292,0.07-0.462c0.033-0.167,0.071-0.351,0.128-0.546
	c0.104-0.39,0.266-0.829,0.497-1.293c0.23-0.466,0.545-0.956,0.955-1.43c0.209-0.235,0.438-0.468,0.694-0.689
	c0.258-0.219,0.544-0.424,0.853-0.614c0.312-0.185,0.644-0.353,1-0.493c0.354-0.142,0.73-0.248,1.12-0.328
	c0.392-0.079,0.796-0.127,1.207-0.137c0.103-0.006,0.204-0.005,0.31-0.003c0.052,0.002,0.104,0.002,0.156,0.003h0.04l0.032,0.001
	l0.021,0.001l0.071,0.004c0.096,0.006,0.191,0.012,0.291,0.019c0.046,0.002,0.104,0.009,0.155,0.015l0.163,0.018l0.163,0.017
	c0.055,0.008,0.105,0.017,0.158,0.025c0.105,0.019,0.212,0.032,0.318,0.055c0.104,0.023,0.212,0.045,0.317,0.069
	c0.107,0.025,0.213,0.057,0.319,0.085c0.425,0.125,0.851,0.283,1.26,0.494c0.819,0.416,1.568,1.026,2.163,1.76
	c0.302,0.364,0.569,0.755,0.828,1.148c0.127,0.197,0.253,0.395,0.382,0.589c0.126,0.195,0.257,0.385,0.396,0.559l0.104,0.126
	l0.054,0.059l0.027,0.029c0.01,0.01,0,0.002,0.008,0.008l0.019,0.015l0.03,0.031c0.014,0.01,0.022,0.021,0.03,0.025
	c0.018,0.012,0.03,0.025,0.049,0.038c0.036,0.026,0.073,0.049,0.109,0.066c0.073,0.036,0.14,0.053,0.211,0.051
	c0.071-0.003,0.146-0.021,0.229-0.061c0.165-0.078,0.34-0.216,0.504-0.371c0.166-0.159,0.326-0.333,0.489-0.514
	c0.326-0.363,0.659-0.745,1.028-1.111c0.37-0.366,0.781-0.72,1.261-1.007c0.479-0.286,1.029-0.502,1.611-0.587
	c0.145-0.023,0.293-0.036,0.438-0.045l0.208-0.006l0.099-0.001c0.032-0.002,0.07,0,0.106,0.001l0.224,0.006l0.215,0.017
	c0.07,0.004,0.144,0.014,0.215,0.023c0.072,0.01,0.143,0.017,0.215,0.03c0.288,0.044,0.574,0.12,0.855,0.214
	c0.281,0.096,0.558,0.223,0.819,0.374c0.264,0.15,0.516,0.326,0.748,0.523c0.233,0.199,0.443,0.424,0.635,0.665
	c0.19,0.238,0.355,0.498,0.501,0.767c0.145,0.269,0.264,0.55,0.356,0.839c0.19,0.576,0.28,1.181,0.284,1.784L-225.706,155.752z"/>
<ellipse fill="#FFFFFF" cx="-328.603" cy="85.12" rx="11.438" ry="12.075"/>
<path fill="#FFFFFF" d="M-306.547,121.249c0,4.46-4.675,8.076-10.438,8.076h-23.235c-5.765,0-10.438-3.616-10.438-8.076v-17.978
	c0-4.46,4.673-8.076,10.438-8.076h23.235c5.765,0,10.438,3.616,10.438,8.076V121.249z"/>
<path fill="#FFFFFF" d="M234.791,195.081h-5.658c3.291-2.299,5.466-6.236,5.466-10.716c0-7.094-5.446-12.843-12.164-12.843
	s-12.165,5.749-12.165,12.843c0,4.479,2.175,8.417,5.467,10.716h-5.657c-6.133,0-11.104,3.846-11.104,8.59v19.119
	c0,4.743,4.97,8.59,11.104,8.59h24.712c6.132,0,11.102-3.847,11.102-8.59v-19.119C245.892,198.927,240.923,195.081,234.791,195.081z
	 M236.151,213.27c-0.003,0.073-0.011,0.168-0.015,0.251c-0.015,0.167-0.031,0.322-0.057,0.48c-0.05,0.316-0.126,0.633-0.228,0.938
	c-0.099,0.308-0.226,0.604-0.379,0.894c-0.152,0.285-0.329,0.563-0.532,0.816c-0.203,0.255-0.427,0.494-0.674,0.707
	c-0.248,0.212-0.515,0.396-0.795,0.559c-0.28,0.16-0.572,0.295-0.873,0.398c-0.3,0.102-0.604,0.18-0.91,0.229
	c-0.305,0.047-0.609,0.078-0.911,0.08c-0.076,0.006-0.15,0.002-0.228,0l-0.235-0.006l-0.103-0.006l-0.051-0.006l-0.063-0.006
	c-0.083-0.008-0.166-0.018-0.242-0.029c-0.62-0.091-1.207-0.32-1.717-0.626c-1.021-0.617-1.747-1.481-2.434-2.256
	c-0.174-0.192-0.346-0.379-0.521-0.547c-0.174-0.165-0.356-0.313-0.532-0.396c-0.088-0.044-0.169-0.063-0.242-0.065
	c-0.075-0.004-0.147,0.014-0.229,0.053c-0.076,0.036-0.156,0.095-0.23,0.167l-0.018,0.013c-0.005,0.006,0.002-0.002-0.008,0.012
	l-0.033,0.033l-0.063,0.067l-0.107,0.128c-0.149,0.184-0.292,0.385-0.43,0.588c-0.143,0.209-0.279,0.414-0.418,0.619
	c-0.282,0.412-0.57,0.82-0.896,1.2c-0.642,0.765-1.425,1.409-2.287,1.85c-0.862,0.438-1.782,0.689-2.67,0.789
	c-0.108,0.013-0.22,0.027-0.33,0.034c-0.108,0.008-0.22,0.016-0.328,0.021l-0.082,0.006l-0.02,0.002h-0.034h-0.038l-0.151,0.004
	l-0.152,0.004c-0.05,0.001-0.11-0.002-0.165-0.005c-0.112-0.005-0.228-0.005-0.335-0.015c-0.108-0.01-0.215-0.018-0.321-0.026
	c-0.212-0.027-0.423-0.054-0.628-0.097c-0.412-0.082-0.813-0.191-1.188-0.341c-0.375-0.146-0.729-0.321-1.06-0.517
	c-0.327-0.198-0.63-0.413-0.903-0.645c-0.272-0.233-0.519-0.479-0.74-0.726c-0.438-0.501-0.775-1.019-1.024-1.51
	c-0.247-0.493-0.419-0.958-0.533-1.371c-0.059-0.208-0.1-0.401-0.138-0.58c-0.032-0.181-0.063-0.343-0.078-0.49
	c-0.009-0.073-0.018-0.144-0.023-0.21c-0.006-0.063-0.012-0.124-0.016-0.182c-0.009-0.113-0.015-0.208-0.015-0.286
	c-0.005-0.153-0.007-0.233-0.007-0.233v-0.021c0,0,0.001-0.068,0.005-0.204c0-0.035,0.002-0.072,0.002-0.114
	c0.003-0.052,0.008-0.106,0.011-0.167c0.004-0.061,0.008-0.125,0.016-0.191c0.007-0.065,0.015-0.137,0.022-0.211
	c0.014-0.146,0.043-0.312,0.074-0.49c0.037-0.18,0.078-0.372,0.136-0.58c0.112-0.415,0.283-0.883,0.528-1.377
	c0.247-0.495,0.58-1.016,1.017-1.521c0.225-0.25,0.466-0.498,0.739-0.73c0.274-0.233,0.579-0.451,0.904-0.653
	c0.332-0.196,0.685-0.376,1.063-0.522c0.377-0.15,0.779-0.266,1.192-0.351c0.416-0.084,0.845-0.135,1.283-0.146
	c0.106-0.006,0.218-0.004,0.327-0.004c0.057,0.002,0.11,0.004,0.166,0.004h0.042l0.036,0.002h0.021l0.076,0.007
	c0.102,0.006,0.206,0.013,0.309,0.021c0.049,0.002,0.111,0.01,0.167,0.016l0.173,0.02l0.174,0.02
	c0.059,0.008,0.112,0.019,0.168,0.025c0.113,0.021,0.228,0.034,0.34,0.059s0.227,0.049,0.34,0.074
	c0.112,0.024,0.227,0.06,0.339,0.092c0.453,0.132,0.905,0.301,1.34,0.523c0.871,0.442,1.667,1.092,2.3,1.871
	c0.322,0.389,0.605,0.803,0.88,1.223c0.138,0.209,0.271,0.42,0.406,0.625c0.135,0.209,0.274,0.408,0.421,0.596l0.111,0.135
	l0.057,0.063l0.028,0.031c0.01,0.012,0,0.002,0.008,0.01l0.02,0.018l0.033,0.031c0.015,0.012,0.024,0.021,0.032,0.026
	c0.02,0.013,0.032,0.026,0.052,0.04c0.039,0.028,0.078,0.053,0.116,0.07c0.078,0.038,0.149,0.057,0.227,0.054
	c0.074-0.003,0.154-0.021,0.242-0.063c0.177-0.082,0.36-0.229,0.536-0.396c0.178-0.169,0.349-0.354,0.521-0.546
	c0.347-0.386,0.7-0.792,1.094-1.182c0.396-0.389,0.831-0.768,1.341-1.071c0.509-0.304,1.097-0.533,1.713-0.623
	c0.154-0.024,0.313-0.039,0.468-0.049l0.222-0.007l0.103-0.002c0.035-0.002,0.077,0.002,0.116,0.002l0.236,0.007l0.228,0.018
	c0.075,0.005,0.153,0.015,0.229,0.023c0.076,0.012,0.15,0.019,0.229,0.032c0.308,0.048,0.61,0.127,0.91,0.228
	c0.301,0.103,0.592,0.236,0.873,0.397c0.279,0.158,0.547,0.346,0.795,0.558c0.248,0.211,0.471,0.451,0.674,0.706
	c0.204,0.254,0.379,0.529,0.533,0.816c0.153,0.285,0.28,0.584,0.38,0.893c0.202,0.611,0.298,1.256,0.302,1.896L236.151,213.27z"/>
<g id="Layer_2_1_">
	<path id="Facebook_3_" fill="#FFFFFF" d="M175.888,299.045c0,0.479,0,2.622,0,2.622h-1.923v3.208h1.921v9.527h3.948v-9.528h2.646
		c0,0,0.247-1.538,0.368-3.22c-0.347,0-3.002,0-3.002,0s0-1.865,0-2.192s0.43-0.769,0.854-0.769c0.424,0,1.317,0,2.147,0
		c0-0.438,0-1.944,0-3.338c-1.104,0-2.368,0-2.927,0C175.789,295.355,175.888,298.564,175.888,299.045z"/>
	<path id="Facebook_1_" fill="#3B599A" d="M175.888,322.045c0,0.479,0,2.621,0,2.621h-1.923v3.208h1.921v9.526h3.948v-9.526h2.646
		c0,0,0.247-1.538,0.368-3.222c-0.347,0-3.002,0-3.002,0s0-1.863,0-2.19s0.43-0.771,0.854-0.771c0.424,0,1.317,0,2.147,0
		c0-0.436,0-1.943,0-3.338c-1.104,0-2.368,0-2.927,0C175.789,318.355,175.888,321.564,175.888,322.045z"/>
	<path id="Twitter_2_" fill="#FFFFFF" d="M162.511,309.584h-4.645c-0.646,0-1.195-0.227-1.646-0.682
		c-0.453-0.453-0.678-1.002-0.678-1.65V305.6h6.618c0.597,0,1.111-0.216,1.537-0.642c0.428-0.431,0.643-0.942,0.643-1.541
		c0-0.601-0.215-1.112-0.644-1.54c-0.428-0.428-0.943-0.643-1.543-0.643h-6.611v-3.414c0-0.646-0.229-1.199-0.688-1.66
		c-0.455-0.462-1.006-0.693-1.646-0.693c-0.658,0-1.22,0.229-1.674,0.68c-0.458,0.455-0.687,1.012-0.687,1.677v9.432
		c0,1.938,0.687,3.597,2.058,4.972c1.373,1.379,3.028,2.065,4.964,2.065h4.644c0.646,0,1.198-0.231,1.659-0.694
		c0.459-0.459,0.688-1.014,0.688-1.66c0-0.646-0.229-1.199-0.688-1.66C163.712,309.816,163.157,309.584,162.511,309.584z"/>
	<path id="Twitter_1_" fill="#55ACEE" d="M162.511,332.584h-4.645c-0.646,0-1.195-0.229-1.646-0.682
		c-0.453-0.454-0.678-1.004-0.678-1.65V328.6h6.618c0.598,0,1.111-0.216,1.537-0.642c0.428-0.431,0.643-0.942,0.643-1.541
		c0-0.601-0.215-1.112-0.644-1.54c-0.428-0.428-0.943-0.643-1.543-0.643h-6.611v-3.416c0-0.646-0.229-1.198-0.688-1.659
		c-0.456-0.462-1.007-0.693-1.646-0.693c-0.658,0-1.22,0.229-1.674,0.681c-0.457,0.453-0.687,1.011-0.687,1.676v9.432
		c0,1.938,0.687,3.598,2.058,4.973c1.373,1.379,3.028,2.064,4.964,2.064h4.645c0.646,0,1.198-0.23,1.658-0.693
		c0.459-0.459,0.688-1.014,0.688-1.658c0-0.646-0.229-1.199-0.688-1.66C163.712,332.816,163.157,332.584,162.511,332.584z"/>
</g>
</svg>
